<?xml version="1.0" encoding="utf-8"?>
<!-- Generator: Adobe Illustrator 22.1.0, SVG Export Plug-In . SVG Version: 6.00 Build 0)  -->
<svg version="1.1" xmlns="http://www.w3.org/2000/svg" xmlns:xlink="http://www.w3.org/1999/xlink" x="0px" y="0px"
	 viewBox="0 0 480 480" style="enable-background:new 0 0 480 480;" xml:space="preserve">
<g id="speaker">
	<path d="M288,75.8v328.6c0,11.7-12.9,18.9-22.8,12.8l-128-78.8H18.5c-8.3,0-15-6.7-15-15V156.6c0-8.3,6.7-15,15-15h118.7L265,63
		C275,56.8,288,64,288,75.8z"/>
</g>
<g id="volume_x5F_1">
	<g>
		<g>
			<path d="M337.3,326c35.9-36.3,45.3-91.1,24.2-137.5c-5.8-12.8-14.3-24.5-24.2-34.5c-10.9-11-27.8,6-17,17
				c8.9,9,16.6,20.3,21.1,31.3C346.7,215,349,227,349,240c0,12.9-2.2,24.4-7.2,37.1c-4.4,11.2-12.4,22.9-21.4,31.9
				C309.5,320,326.4,337,337.3,326L337.3,326z"/>
		</g>
	</g>
</g>
<g id="volume_x5F_2">
	<g>
		<g>
			<path d="M363.1,384.4c29.4-29.6,49.8-67.9,56.7-109.1c7-41.2,1.5-83.1-15.8-121.1c-9.9-21.8-24.1-41.7-41-58.7
				c-10.9-11-27.9,6-17,17c26.9,27.1,44.2,60.8,50.6,98.5c1.3,7.7,2.1,16.5,2.2,25.5c0.2,9.1-0.3,18.3-1.5,27.4
				c-0.9,7.1-3.3,18.1-5.7,26.5c-2.5,8.7-5.6,17-9,24.5c-9.2,19.9-21.4,37.2-36.6,52.5C335.2,378.4,352.2,395.4,363.1,384.4
				L363.1,384.4z"/>
		</g>
	</g>
</g>
<g id="volume_x5F_3">
	<g>
		<g>
			<path d="M399.6,417.3c36.2-36.4,61.2-83.7,69.8-134.4c8.5-50.5,1.7-102.1-19.7-148.6c-12.2-26.6-29.5-50.8-50.1-71.5
				c-10.9-11-27.9,6-17,17c33.5,33.7,55.5,76.2,63.5,123.2c1,5.8,1.4,9.1,2,15.2c0.5,5.7,0.8,11.4,1,17.1
				c0.2,11.7-0.4,23.4-1.9,34.9c-0.4,3.5-1.7,10.8-2.8,15.8c-1.2,5.6-2.6,11.2-4.1,16.7c-3.2,11-7.2,22-11.6,31.6
				c-11.5,24.9-26.9,46.7-46,66C371.7,411.3,388.7,428.2,399.6,417.3L399.6,417.3z"/>
		</g>
	</g>
</g>
</svg>
